<svg xmlns="http://www.w3.org/2000/svg" viewBox="0 0 512 512">
  <defs>
    <linearGradient id="grad" x1="0%" y1="0%" x2="100%" y2="100%">
      <stop offset="0%" style="stop-color:#4F46E5"/>
      <stop offset="100%" style="stop-color:#7C3AED"/>
    </linearGradient>
  </defs>

  <!-- Background -->
  <rect width="512" height="512" rx="100" fill="url(#grad)"/>

  <!-- Pot body -->
  <path d="M115 195 L115 295 Q115 340 165 340 L347 340 Q397 340 397 295 L397 195 Z"
        fill="white"/>

  <!-- Pot rim -->
  <rect x="100" y="175" width="312" height="28" rx="14" fill="white"/>

  <!-- Pot handles -->
  <rect x="60" y="180" width="50" height="18" rx="9" fill="white"/>
  <rect x="402" y="180" width="50" height="18" rx="9" fill="white"/>

  <!-- Steam -->
  <path d="M180 145 Q170 110 180 85 Q190 60 180 35"
        stroke="white" stroke-width="12" fill="none" stroke-linecap="round" opacity="0.7"/>
  <path d="M256 135 Q246 100 256 75 Q266 50 256 25"
        stroke="white" stroke-width="12" fill="none" stroke-linecap="round" opacity="0.85"/>
  <path d="M332 145 Q322 110 332 85 Q342 60 332 35"
        stroke="white" stroke-width="12" fill="none" stroke-linecap="round" opacity="0.7"/>

  <!-- Ingredient dots -->
  <circle cx="180" cy="250" r="18" fill="#FCD34D"/>
  <circle cx="256" cy="240" r="22" fill="#F87171"/>
  <circle cx="320" cy="260" r="16" fill="#4ADE80"/>
  <circle cx="215" cy="295" r="14" fill="#FB923C"/>
  <circle cx="295" cy="300" r="14" fill="#A78BFA"/>

  <!-- Name -->
  <text x="256" y="420" font-family="system-ui, -apple-system, sans-serif" font-size="72" font-weight="700" fill="white" text-anchor="middle">Mise</text>

  <!-- Tagline -->
  <text x="256" y="465" font-family="system-ui, -apple-system, sans-serif" font-size="26" fill="white" fill-opacity="0.85" text-anchor="middle">Your Kitchen Sidekick</text>
</svg>
