<svg xmlns="http://www.w3.org/2000/svg" viewBox="0 0 144 144">
  <defs>
    <linearGradient id="grad" x1="0%" y1="0%" x2="100%" y2="100%">
      <stop offset="0%" style="stop-color:#4F46E5"/>
      <stop offset="100%" style="stop-color:#7C3AED"/>
    </linearGradient>
  </defs>

  <!-- Background -->
  <rect width="144" height="144" rx="28" fill="url(#grad)"/>

  <!-- Pot body -->
  <path d="M32 60 L32 90 Q32 105 47 105 L97 105 Q112 105 112 90 L112 60 Z"
        fill="white"/>

  <!-- Pot rim -->
  <rect x="28" y="52" width="88" height="11" rx="5.5" fill="white"/>

  <!-- Pot handles -->
  <rect x="16" y="54" width="15" height="6" rx="3" fill="white"/>
  <rect x="113" y="54" width="15" height="6" rx="3" fill="white"/>

  <!-- Steam -->
  <path d="M51 44 Q47 33 51 26 Q55 19 51 12"
        stroke="white" stroke-width="4" fill="none" stroke-linecap="round" opacity="0.7"/>
  <path d="M72 41 Q68 30 72 23 Q76 16 72 9"
        stroke="white" stroke-width="4" fill="none" stroke-linecap="round" opacity="0.85"/>
  <path d="M93 44 Q89 33 93 26 Q97 19 93 12"
        stroke="white" stroke-width="4" fill="none" stroke-linecap="round" opacity="0.7"/>

  <!-- Ingredient dots -->
  <circle cx="51" cy="75" r="6" fill="#FCD34D"/>
  <circle cx="72" cy="72" r="7" fill="#F87171"/>
  <circle cx="91" cy="79" r="5" fill="#4ADE80"/>
  <circle cx="62" cy="90" r="4" fill="#FB923C"/>
  <circle cx="83" cy="91" r="4" fill="#A78BFA"/>
</svg>
