<svg xmlns="http://www.w3.org/2000/svg" viewBox="0 0 152 152">
  <defs>
    <linearGradient id="grad" x1="0%" y1="0%" x2="100%" y2="100%">
      <stop offset="0%" style="stop-color:#4F46E5"/>
      <stop offset="100%" style="stop-color:#7C3AED"/>
    </linearGradient>
  </defs>

  <!-- Background -->
  <rect width="152" height="152" rx="30" fill="url(#grad)"/>

  <!-- Pot body -->
  <path d="M34 64 L34 96 Q34 112 50 112 L102 112 Q118 112 118 96 L118 64 Z"
        fill="white"/>

  <!-- Pot rim -->
  <rect x="30" y="56" width="92" height="12" rx="6" fill="white"/>

  <!-- Pot handles -->
  <rect x="17" y="58" width="16" height="7" rx="3.5" fill="white"/>
  <rect x="119" y="58" width="16" height="7" rx="3.5" fill="white"/>

  <!-- Steam -->
  <path d="M54 46 Q50 34 54 26 Q58 18 54 10"
        stroke="white" stroke-width="4" fill="none" stroke-linecap="round" opacity="0.7"/>
  <path d="M76 43 Q72 31 76 23 Q80 15 76 7"
        stroke="white" stroke-width="4" fill="none" stroke-linecap="round" opacity="0.85"/>
  <path d="M98 46 Q94 34 98 26 Q102 18 98 10"
        stroke="white" stroke-width="4" fill="none" stroke-linecap="round" opacity="0.7"/>

  <!-- Ingredient dots -->
  <circle cx="54" cy="80" r="7" fill="#FCD34D"/>
  <circle cx="76" cy="76" r="8" fill="#F87171"/>
  <circle cx="96" cy="84" r="6" fill="#4ADE80"/>
  <circle cx="66" cy="96" r="5" fill="#FB923C"/>
  <circle cx="88" cy="97" r="5" fill="#A78BFA"/>
</svg>
